M48
; DRILL file {KiCad 9.0.0} date 2025-12-26T21:39:11+0300
; FORMAT={-:-/ absolute / metric / decimal}
; #@! TF.CreationDate,2025-12-26T21:39:11+03:00
; #@! TF.GenerationSoftware,Kicad,Pcbnew,9.0.0
; #@! TF.FileFunction,Plated,1,2,PTH
FMAT,2
METRIC
; #@! TA.AperFunction,Plated,PTH,ComponentDrill
T1C0.750
; #@! TA.AperFunction,Plated,PTH,ComponentDrill
T2C0.800
; #@! TA.AperFunction,Plated,PTH,ComponentDrill
T3C0.900
; #@! TA.AperFunction,Plated,PTH,ComponentDrill
T4C1.000
; #@! TA.AperFunction,Plated,PTH,ComponentDrill
T5C1.100
; #@! TA.AperFunction,Plated,PTH,ComponentDrill
T6C1.300
; #@! TA.AperFunction,Plated,PTH,ViaDrill
T7C1.500
; #@! TA.AperFunction,Plated,PTH,ComponentDrill
T8C1.500
; #@! TA.AperFunction,Plated,PTH,ComponentDrill
T9C1.600
; #@! TA.AperFunction,Plated,PTH,ComponentDrill
T10C2.000
; #@! TA.AperFunction,Plated,PTH,ComponentDrill
T11C2.200
%
G90
G05
T1
X158.605Y-134.872
X158.605Y-136.142
X158.605Y-137.412
X158.685Y-128.372
X158.685Y-129.642
X158.685Y-130.912
T2
X58.105Y-192.265
X67.135Y-90.385
X68.265Y-192.265
X68.815Y-163.485
X74.095Y-96.555
X74.095Y-106.715
X74.345Y-147.115
X74.345Y-157.275
X77.295Y-90.385
X78.975Y-163.485
X88.355Y-99.655
X88.465Y-151.785
X92.625Y-70.325
X92.625Y-80.485
X93.355Y-99.655
X93.465Y-151.785
X98.365Y-159.035
X98.365Y-169.195
X102.035Y-223.365
X102.115Y-111.535
X102.115Y-121.695
X104.815Y-59.465
X104.815Y-69.625
X111.75Y-187.165
X112.125Y-208.175
X112.195Y-223.365
X115.35Y-56.655
X115.35Y-61.655
X115.35Y-64.595
X115.35Y-69.595
X115.895Y-74.262
X115.895Y-79.262
X116.215Y-96.295
X116.215Y-106.455
X116.615Y-46.365
X116.615Y-51.365
X116.75Y-187.165
X116.935Y-148.815
X116.935Y-158.975
X117.125Y-208.175
X118.62Y-55.095
X118.62Y-57.635
X118.62Y-60.175
X118.62Y-62.715
X118.62Y-65.255
X118.62Y-67.795
X118.62Y-70.335
X119.518Y-113.865
X119.865Y-165.365
X120.572Y-187.145
X121.065Y-208.405
X124.051Y-51.305
X124.518Y-113.865
X124.865Y-165.365
X125.572Y-187.145
X126.065Y-208.405
X126.24Y-55.095
X126.24Y-57.635
X126.24Y-60.175
X126.24Y-62.715
X126.24Y-65.255
X126.24Y-67.795
X126.24Y-70.335
X127.59Y-145.98
X127.59Y-150.98
X127.59Y-154.14
X127.59Y-159.14
X127.675Y-94.038
X127.675Y-99.038
X127.675Y-101.638
X127.675Y-106.638
X127.765Y-134.008
X127.765Y-139.008
X127.955Y-82.498
X127.955Y-87.498
X129.192Y-187.145
X129.365Y-216.365
X129.365Y-218.865
X129.39Y-62.815
X129.39Y-67.815
X129.635Y-208.375
X130.985Y-144.815
X130.985Y-147.355
X130.985Y-149.895
X130.985Y-152.435
X130.985Y-154.975
X130.985Y-157.515
X130.985Y-160.055
X131.14Y-92.468
X131.14Y-95.008
X131.14Y-97.548
X131.14Y-100.088
X131.14Y-102.628
X131.14Y-105.168
X131.14Y-107.708
X133.515Y-73.792
X133.515Y-78.792
X134.192Y-187.145
X134.211Y-51.305
X134.635Y-208.375
X137.501Y-51.315
X138.002Y-187.095
X138.275Y-208.355
X138.605Y-144.815
X138.605Y-147.355
X138.605Y-149.895
X138.605Y-152.435
X138.605Y-154.975
X138.605Y-157.515
X138.605Y-160.055
X138.76Y-92.468
X138.76Y-95.008
X138.76Y-97.548
X138.76Y-100.088
X138.76Y-102.628
X138.76Y-105.168
X138.76Y-107.708
X141.895Y-100.138
X141.895Y-105.138
X141.945Y-112.932
X141.945Y-117.932
X141.95Y-152.47
X141.95Y-157.47
X142.415Y-170.515
X142.415Y-175.515
X142.461Y-54.865
X143.002Y-187.095
X143.275Y-208.355
X143.32Y-194.064
X146.915Y-187.175
X147.461Y-54.865
X147.661Y-51.315
X148.32Y-194.064
X150.72Y-200.424
X150.72Y-205.424
X151.915Y-187.175
X152.615Y-124.615
X153.365Y-141.622
X156.805Y-104.865
X157.245Y-107.495
X157.245Y-115.115
X159.785Y-107.495
X159.785Y-115.115
X162.325Y-107.495
X162.325Y-115.115
X162.775Y-124.615
X163.015Y-128.762
X163.015Y-136.382
X163.525Y-141.622
X164.425Y-104.865
X164.865Y-107.495
X164.865Y-115.115
X165.555Y-128.762
X165.555Y-136.382
X166.575Y-119.1
X166.575Y-121.6
X167.546Y-180.827
X167.579Y-190.007
X168.095Y-128.762
X168.095Y-136.382
X168.255Y-110.11
X168.255Y-115.11
X168.995Y-104.865
X170.635Y-128.762
X170.635Y-136.382
X171.805Y-107.392
X171.805Y-115.012
X172.546Y-180.827
X172.579Y-190.007
X173.035Y-125.365
X173.115Y-141.865
X173.175Y-128.762
X173.175Y-136.382
X174.345Y-107.392
X174.345Y-115.012
X175.715Y-128.762
X175.715Y-136.382
X176.615Y-104.865
X176.885Y-107.392
X176.885Y-115.012
X178.255Y-128.762
X178.255Y-136.382
X179.425Y-107.392
X179.425Y-115.012
X181.115Y-118.897
X181.115Y-121.397
X182.835Y-110.027
X182.835Y-115.027
X183.195Y-125.365
X183.275Y-141.865
T3
X157.115Y-219.115
X157.115Y-244.115
X162.115Y-219.115
X162.115Y-244.115
X167.115Y-244.115
X172.115Y-219.115
X172.115Y-244.115
X177.115Y-219.115
X177.115Y-244.115
T4
X125.483Y-47.483
X128.023Y-47.483
X130.563Y-47.483
X135.143Y-47.513
X137.683Y-47.513
X140.223Y-47.513
X143.625Y-135.59
X143.625Y-138.13
X143.655Y-127.71
X143.655Y-130.25
X144.09Y-47.615
X146.63Y-47.615
X149.075Y-63.765
X149.075Y-68.415
X149.075Y-73.065
X149.075Y-77.715
X149.075Y-82.365
X149.17Y-47.615
X150.615Y-105.865
X150.615Y-108.405
X151.615Y-63.765
X151.615Y-68.415
X151.615Y-73.065
X151.615Y-77.715
X151.615Y-82.365
X153.235Y-128.297
X153.235Y-130.837
X153.235Y-135.057
X153.235Y-137.597
X167.639Y-171.227
X170.179Y-171.227
X185.365Y-148.925
X185.365Y-151.465
X185.365Y-154.005
X185.365Y-162.525
X185.365Y-165.065
X185.365Y-167.605
X185.365Y-176.125
X185.365Y-178.665
X185.365Y-181.205
X185.365Y-189.725
X185.365Y-192.265
X185.365Y-194.805
X185.365Y-203.325
X185.365Y-205.865
X185.365Y-208.405
T5
X67.305Y-84.645
X68.985Y-168.685
X77.465Y-84.645
X79.145Y-168.685
X80.68Y-96.575
X80.68Y-101.655
X80.68Y-148.125
X80.68Y-153.205
X96.235Y-75.825
X104.785Y-164.365
X105.455Y-112.115
X106.395Y-75.825
X110.305Y-59.245
X110.305Y-69.405
X110.49Y-96.575
X110.49Y-101.655
X110.49Y-148.125
X110.49Y-153.205
X111.811Y-198.385
X111.811Y-200.925
X111.811Y-203.465
X114.945Y-164.365
X115.615Y-112.115
X120.771Y-198.645
X120.771Y-201.185
X120.771Y-203.725
X121.795Y-96.165
X121.795Y-106.325
X122.045Y-148.37
X122.045Y-158.53
X129.356Y-198.735
X129.356Y-201.275
X129.356Y-203.815
X137.865Y-198.785
X137.865Y-201.325
X137.865Y-203.865
X146.565Y-198.774
X146.565Y-201.314
X146.565Y-203.854
X166.039Y-194.772
X168.579Y-194.772
X171.119Y-194.772
T6
X156.625Y-55.225
X156.625Y-57.765
X156.625Y-60.305
X156.625Y-62.845
X156.625Y-65.385
X156.625Y-67.925
X156.625Y-70.465
X156.625Y-73.005
X156.625Y-75.545
X156.625Y-78.085
X156.625Y-80.625
X156.625Y-83.165
X156.625Y-85.705
X156.625Y-88.245
X156.625Y-90.785
X156.625Y-93.325
X156.625Y-95.865
X156.625Y-98.405
X156.625Y-100.945
X182.025Y-55.225
X182.025Y-57.765
X182.025Y-60.305
X182.025Y-62.845
X182.025Y-65.385
X182.025Y-67.925
X182.025Y-70.465
X182.025Y-73.005
X182.025Y-75.545
X182.025Y-78.085
X182.025Y-80.625
X182.025Y-83.165
X182.025Y-85.705
X182.025Y-88.245
X182.025Y-90.785
X182.025Y-93.325
X182.025Y-95.865
X182.025Y-98.405
X182.025Y-100.945
T7
X73.365Y-176.115
X79.865Y-177.365
X133.865Y-61.115
X142.365Y-94.865
X145.365Y-149.865
X146.865Y-61.365
X149.365Y-95.865
X151.365Y-149.865
X157.265Y-171.715
X175.015Y-163.115
T8
X68.685Y-96.615
X68.685Y-102.065
X68.685Y-107.515
X68.845Y-148.165
X68.845Y-153.615
X68.845Y-159.065
X97.555Y-58.875
X97.555Y-64.325
X97.555Y-69.775
X102.935Y-96.615
X102.935Y-102.065
X102.935Y-107.515
X102.935Y-148.165
X102.935Y-153.615
X102.935Y-159.065
T9
X119.905Y-214.695
X119.905Y-229.935
X139.895Y-214.765
X139.895Y-230.005
T10
X75.865Y-199.365
X99.865Y-199.365
T11
X66.995Y-59.085
X66.995Y-66.085
X71.995Y-59.085
X71.995Y-66.085
X82.985Y-59.055
X82.985Y-66.055
X87.985Y-59.055
X87.985Y-66.055
X90.115Y-116.365
X90.115Y-121.365
X90.115Y-128.365
X90.115Y-133.365
X97.115Y-116.365
X97.115Y-121.365
X97.115Y-128.365
X97.115Y-133.365
T4
G00X73.915Y-229.565
M15
G01X73.915Y-223.065
M16
G05
G00X79.465Y-242.915
M15
G01X72.965Y-242.915
M16
G05
G00X93.765Y-224.815
M15
G01X87.265Y-224.815
M16
G05
G00X93.765Y-242.915
M15
G01X87.265Y-242.915
M16
G05
M30
